<svg xmlns="http://www.w3.org/2000/svg" viewBox="0 0 203 131"><g fill="none" fill-rule="evenodd"><path fill="#d4f8f3" d="M202 2.288v128H2V76.804l19.724 28.708 7.388 3.528 6.896-3.528 8.376 3.528 7.88 6.04 12.808 7.552 6.032.76 9.48-2.9 7.88-6.292 5.052-2.896 6.4 2.268 8.376 8.56 3.572 2.14 9.112-1.64 5.544-6.92 4.184-5.54s5.296-4.66 5.912-4.66 8.496 3.528 8.496 3.528 4.312 6.672 4.56 6.672 4.06 5.664 4.06 5.664l5.176 2.896 6.032-2.14z"/><path stroke="#35b2aa" stroke-linecap="round" stroke-linejoin="round" stroke-width="6" d="M199.5 3.288s-32.504 120.424-40.38 119.432c-7.88-.996-17.732-21.896-25.612-17.916-7.88 3.984-15.76 21.896-22.652 17.916s-13.788-17.916-20.188-13.932c-6.4 3.98-17.24 13.932-23.148 13.932s-21.668-21.896-33.488-17.916C22.212 108.788 3.5 77.936 3.5 77.936"/></g></svg>